# xmcd
#
# Track frame offsets:
#	150
#	16709
#	34670
#	46932
#	65144
#	78740
#	95231
#	110179
#	127942
#	144699
#	162586
#	179561
#	194589
#	213862
#	231462
#	248954
#	264318
#
# Disc length: 3703 seconds
#
# Revision: 1
# Processed by: cddbd v1.5.2PL0 Copyright (c) Steve Scherf et al.
# Submitted via: audiograbber 1.83.01
#
DISCID=030e7511
DTITLE=Bhartbusters - ESP453-01
DYEAR=1900
DGENRE=
TTITLE0=Alabama - Forever's As Far As I'll Go
TTITLE1=Black, Clint - Loving Blind
TTITLE2=Loveless, Patty - Chains
TTITLE3=Travis, Randy - Hard Rock Bottom Of My Heart
TTITLE4=Dunn, Holly - You Really Had Me Going
TTITLE5=Black, Clint - Nobody's Home
TTITLE6=Strait, George - Love Without End Amen
TTITLE7=McEntire, Reba - You Lie
TTITLE8=Overstreet, Paul - Daddy's Come Around
TTITLE9=Oslin, K. T. - Come Next Monday
TTITLE10=Gill, Vince - Never Knew Lonely
TTITLE11=Chesnutt, Mark - Brother Jukebox
TTITLE12=Mattea, Kathy - Where've You Been
TTITLE13=Van Shelton, Ricky - I Am A Simple Man
TTITLE14=Alabama - Jukebox In My Mind
TTITLE15=Forester Sisters - Men
TTITLE16=Black, Clint - Walkin' Away
EXTD=
EXTT0=
EXTT1=
EXTT2=
EXTT3=
EXTT4=
EXTT5=
EXTT6=
EXTT7=
EXTT8=
EXTT9=
EXTT10=
EXTT11=
EXTT12=
EXTT13=
EXTT14=
EXTT15=
EXTT16=
PLAYORDER=
